<svg width="40" height="40" viewBox="0 0 40 40" fill="none" xmlns="http://www.w3.org/2000/svg">
<path d="M31.4833 11.6867C32.83 10.86 33.7216 9.73167 34.1583 8.29667C32.9284 8.96185 31.6086 9.44521 30.24 9.73167C29.0683 8.47167 27.585 7.83167 25.8066 7.83167C24.0683 7.83167 22.6 8.44167 21.4016 9.62833C20.8229 10.1918 20.3654 10.8676 20.057 11.6141C19.7486 12.3607 19.5959 13.1624 19.6083 13.97C19.6083 14.485 19.6733 14.945 19.8033 15.335C14.6766 15.16 10.4333 13.0333 7.08996 8.94C6.52329 9.94167 6.23996 10.9617 6.23996 12.0167C6.23996 14.185 7.15496 15.9033 8.98162 17.165C7.93996 17.0767 7.02162 16.8133 6.23996 16.3817C6.23996 17.93 6.69496 19.2233 7.60662 20.3617C8.49222 21.4709 9.74026 22.2327 11.1316 22.5133C10.6116 22.6467 10.0633 22.71 9.49996 22.71C8.97996 22.71 8.61162 22.6667 8.39329 22.5717C8.77662 23.8333 9.49996 24.8567 10.545 25.64C11.578 26.4244 12.8347 26.8583 14.1316 26.8783C11.9116 28.62 9.37329 29.4817 6.50162 29.4817C5.79829 29.4817 5.29996 29.4717 4.99829 29.4183C7.82662 31.255 10.975 32.1667 14.4583 32.1667C18.0233 32.1667 21.1733 31.2633 23.915 29.4567C26.6566 27.66 28.68 25.4433 29.98 22.8333C31.2655 20.3078 31.9349 17.5139 31.9333 14.68V13.9C33.1316 13.0165 34.1689 11.9335 35 10.6983C33.8776 11.1848 32.6947 11.5172 31.4833 11.6867Z" fill="#1F1F1F"/>
</svg>
